# xmcd
#
# Track frame offsets:
#	150
#	16495
#	37870
#	55650
#	72033
#	94062
#	116405
#	134654
#	153767
#	175680
#	186855
#	199097
#
# Disc length: 2840 seconds
#
# Revision: 1
# Processed by: cddbd v1.5.1PL0 Copyright (c) Steve Scherf et al.
# Submitted via: EasyCDDAExtractor 7.0.6.1
#
DISCID=950b160c
DTITLE=Boo Boo Davis - The Snake
DYEAR=2004
DGENRE=Blues
TTITLE0=Don't Bother My Shoes 
TTITLE1=Mountain Top
TTITLE2=Leave It Alone
TTITLE3=Crown Royal
TTITLE4=The Snake
TTITLE5=Mike In Jail
TTITLE6=Where Was My Baby
TTITLE7=Maley Man
TTITLE8=Keep Your Car Locked
TTITLE9=Shut That Door
TTITLE10=Riplin
TTITLE11=Sure Had A Wonderful Time
EXTD=
EXTT0=
EXTT1=
EXTT2=
EXTT3=
EXTT4=
EXTT5=
EXTT6=
EXTT7=
EXTT8=
EXTT9=
EXTT10=
EXTT11=
PLAYORDER=
